<svg width="1289" height="345" viewBox="0 0 1289 345" fill="none" xmlns="http://www.w3.org/2000/svg">
<path d="M97.9 8H248.4C297.6 8 337.5 47.9 337.5 97.1V247.6C337.5 296.8 297.6 336.7 248.4 336.7H97.9C48.7 336.7 8.8 296.8 8.8 247.6V97.1C8.8 47.9 48.7 8 97.9 8Z" fill="#F4F4F4" stroke="#F4F4F4" stroke-width="2" stroke-miterlimit="10"/>
<path d="M164.16 265H118.8V92.68H236.16V132.04H164.16V163.96H224.4V203.32H164.16V265Z" fill="#4E5CA6"/>
<path d="M430.12 269H403.72V96.68H508.36V119.72H430.12V175.88H496.84V198.92H430.12V269ZM556.587 269H532.347V141.8H556.587V269ZM561.867 112.28C561.867 116.76 560.187 120.6 556.827 123.8C553.627 126.84 549.467 128.36 544.347 128.36C539.067 128.36 534.747 126.84 531.387 123.8C528.187 120.6 526.587 116.76 526.587 112.28C526.587 107.48 528.187 103.64 531.387 100.76C534.747 97.72 539.067 96.2 544.347 96.2C549.467 96.2 553.627 97.72 556.827 100.76C560.187 103.64 561.867 107.48 561.867 112.28ZM640.398 271.64C628.718 271.64 618.398 268.84 609.438 263.24C600.638 257.64 593.678 249.88 588.558 239.96C583.598 229.88 581.118 218.36 581.118 205.4C581.118 192.6 583.678 181.24 588.798 171.32C593.918 161.4 600.958 153.64 609.918 148.04C618.878 142.28 629.038 139.4 640.398 139.4C650.958 139.4 660.318 141.64 668.478 146.12C676.798 150.44 683.598 156.68 688.878 164.84C694.318 172.84 697.758 182.36 699.198 193.4H673.758C672.478 183.16 668.878 175.16 662.958 169.4C657.038 163.64 649.598 160.76 640.638 160.76C633.598 160.76 627.518 162.68 622.398 166.52C617.278 170.2 613.278 175.32 610.398 181.88C607.518 188.44 606.078 196.28 606.078 205.4C606.078 214.36 607.518 222.2 610.398 228.92C613.278 235.64 617.278 240.84 622.398 244.52C627.518 248.2 633.598 250.04 640.638 250.04C649.758 250.04 657.198 247.16 662.958 241.4C668.878 235.64 672.558 227.64 673.998 217.4H699.198C697.918 228.6 694.638 238.28 689.358 246.44C684.078 254.44 677.278 260.68 668.958 265.16C660.638 269.48 651.118 271.64 640.398 271.64ZM775.705 271.4C766.745 271.4 758.425 269.8 750.745 266.6C743.225 263.24 736.665 258.6 731.065 252.68C725.465 246.6 721.065 239.56 717.865 231.56C714.825 223.56 713.305 214.84 713.305 205.4C713.305 195.96 714.825 187.24 717.865 179.24C721.065 171.24 725.465 164.28 731.065 158.36C736.665 152.28 743.225 147.64 750.745 144.44C758.425 141.08 766.745 139.4 775.705 139.4C784.825 139.4 793.145 141.08 800.665 144.44C808.345 147.64 814.905 152.28 820.345 158.36C825.945 164.28 830.265 171.24 833.305 179.24C836.505 187.24 838.105 195.96 838.105 205.4C838.105 214.84 836.505 223.56 833.305 231.56C830.265 239.56 825.945 246.6 820.345 252.68C814.905 258.6 808.345 263.24 800.665 266.6C793.145 269.8 784.825 271.4 775.705 271.4ZM775.705 250.04C782.745 250.04 789.065 248.28 794.665 244.76C800.425 241.08 804.905 235.88 808.105 229.16C811.465 222.44 813.145 214.52 813.145 205.4C813.145 196.12 811.465 188.2 808.105 181.64C804.905 174.92 800.425 169.8 794.665 166.28C789.065 162.76 782.745 161 775.705 161C768.825 161 762.505 162.76 756.745 166.28C751.145 169.8 746.665 174.92 743.305 181.64C740.105 188.2 738.505 196.12 738.505 205.4C738.505 214.52 740.105 222.44 743.305 229.16C746.665 235.88 751.145 241.08 756.745 244.76C762.505 248.28 768.825 250.04 775.705 250.04Z" fill="#303031"/>
</svg>
